<?xml version="1.0" encoding="UTF-8"?>
<!DOCTYPE svg PUBLIC "-//W3C//DTD SVG 1.1//EN" "http://www.w3.org/Graphics/SVG/1.1/DTD/svg11.dtd">
<svg xmlns="http://www.w3.org/2000/svg" version="1.1" width="512px" height="512px" style="shape-rendering:geometricPrecision; text-rendering:geometricPrecision; image-rendering:optimizeQuality; fill-rule:evenodd; clip-rule:evenodd" xmlns:xlink="http://www.w3.org/1999/xlink">
<g><path style="opacity:0.949" fill="#fefffe" d="M 245.5,101.5 C 316.731,100.846 367.564,132.513 398,196.5C 418.88,253.678 410.88,306.344 374,354.5C 327.238,404.985 270.738,420.485 204.5,401C 149.791,379.958 116.291,340.792 104,283.5C 95.414,225.198 112.914,176.365 156.5,137C 182.576,116.033 212.243,104.2 245.5,101.5 Z M 238.5,123.5 C 295.335,119.502 339.169,141.169 370,188.5C 387.689,219.972 392.356,253.306 384,288.5C 366.78,343.867 329.613,376.701 272.5,387C 215.643,391.486 171.81,369.986 141,322.5C 123.311,291.028 118.644,257.694 127,222.5C 139.909,177.258 168.409,146.424 212.5,130C 221.139,127.174 229.806,125.007 238.5,123.5 Z"/></g>
<g><path style="opacity:0.936" fill="#fefffe" d="M 208.5,201.5 C 212.544,200.958 216.211,201.791 219.5,204C 231.347,216.014 243.347,227.848 255.5,239.5C 268.348,226.818 281.348,214.318 294.5,202C 303.239,200.247 308.239,203.747 309.5,212.5C 309.705,215.229 308.872,217.562 307,219.5C 294.986,231.347 283.152,243.347 271.5,255.5C 284.182,268.348 296.682,281.348 309,294.5C 310.753,303.239 307.253,308.239 298.5,309.5C 295.771,309.705 293.438,308.872 291.5,307C 279.653,294.986 267.653,283.152 255.5,271.5C 242.652,284.182 229.652,296.682 216.5,309C 207.761,310.753 202.761,307.253 201.5,298.5C 201.295,295.771 202.128,293.438 204,291.5C 216.014,279.653 227.848,267.653 239.5,255.5C 226.818,242.652 214.318,229.652 202,216.5C 200.366,209.775 202.532,204.775 208.5,201.5 Z"/></g>
</svg>
