<?xml version="1.0" standalone="no"?>
<!DOCTYPE svg PUBLIC "-//W3C//DTD SVG 20010904//EN"
 "http://www.w3.org/TR/2001/REC-SVG-20010904/DTD/svg10.dtd">
<svg version="1.0" xmlns="http://www.w3.org/2000/svg"
 width="500.000000pt" height="500.000000pt" viewBox="0 0 500.000000 500.000000"
 preserveAspectRatio="xMidYMid meet">

<g transform="translate(0.000000,500.000000) scale(0.100000,-0.100000)"
fill="#FFFFFF" stroke="none">
<path d="M1995 3671 c-280 -86 -516 -159 -524 -162 -7 -3 87 -53 210 -112
l224 -106 3 -96 3 -95 77 39 c88 44 210 85 296 100 243 43 536 8 728 -89 l78
-39 0 87 0 87 230 110 c184 89 225 111 207 117 -152 51 -1002 318 -1011 317
-6 -1 -240 -72 -521 -158z m-362 -195 c-1 -16 -5 -31 -8 -34 -9 -9 -25 20 -25
46 0 17 5 22 18 20 12 -3 16 -12 15 -32z"/>
<path d="M1601 3162 c-7 -103 -15 -195 -17 -204 -4 -15 1 -18 30 -18 34 0 36
2 36 33 0 48 -28 369 -33 373 -2 2 -9 -80 -16 -184z"/>
<path d="M2330 3210 c-235 -32 -456 -144 -581 -295 -93 -113 -144 -244 -155
-405 -5 -60 -12 -91 -24 -105 -97 -110 -90 -409 16 -733 87 -266 199 -418 282
-383 34 15 68 67 83 128 7 26 13 50 15 52 2 2 46 -36 97 -86 114 -110 205
-166 317 -194 196 -50 373 11 566 194 l92 88 16 -53 c59 -200 173 -174 290 65
100 205 150 418 151 642 0 167 -10 217 -54 268 -24 27 -29 44 -35 115 -9 105
-37 205 -84 301 -52 107 -185 241 -297 298 -150 77 -323 114 -520 112 -66 -1
-145 -5 -175 -9z m-51 -350 c74 -39 124 -93 160 -169 22 -47 26 -70 26 -141 0
-73 -4 -93 -29 -144 -108 -220 -393 -267 -564 -94 -149 150 -125 403 48 523
108 75 247 84 359 25z m761 -1 c69 -36 128 -97 162 -167 18 -38 23 -64 23
-137 0 -77 -4 -98 -26 -146 -105 -224 -404 -272 -570 -91 -115 124 -125 312
-25 444 102 134 289 175 436 97z m-410 -612 c0 -15 -121 -178 -130 -175 -11 4
-130 166 -130 177 0 4 30 15 68 23 59 12 75 12 130 -1 34 -8 62 -19 62 -24z
m-767 -336 c37 -22 73 -41 80 -41 6 0 26 8 42 18 17 10 53 32 80 47 l50 29
-85 -92 -84 -92 -34 33 c-42 40 -141 153 -127 145 6 -3 40 -24 78 -47z m436
-41 c6 0 43 20 83 44 40 25 75 43 77 40 3 -3 -32 -42 -78 -88 l-83 -84 -77 80
c-42 44 -78 84 -79 89 -2 6 30 -11 71 -36 41 -25 79 -45 86 -45z m334 31 c37
-22 71 -41 75 -41 4 0 41 20 81 45 41 25 75 44 76 43 2 -2 -32 -41 -75 -88
l-79 -85 -80 80 c-45 44 -81 83 -81 88 0 4 3 6 8 4 4 -3 37 -23 75 -46z m366
-9 c61 -39 53 -40 171 30 l55 32 -42 -49 c-23 -28 -60 -68 -82 -90 l-41 -39
-61 59 c-33 33 -70 73 -81 89 l-21 28 24 -12 c13 -7 48 -29 78 -48z m-866
-262 c7 0 26 8 42 18 17 10 53 31 80 47 l50 29 -84 -93 -84 -92 -84 83 c-45
45 -83 86 -83 90 0 4 34 -13 76 -37 42 -25 81 -45 87 -45z m322 23 l50 -29 50
29 c28 16 66 38 85 50 l35 20 -25 -29 c-13 -16 -51 -57 -84 -91 l-60 -63 -54
53 c-29 28 -68 70 -85 92 l-32 40 35 -22 c19 -11 58 -34 85 -50z m489 7 c108
66 116 68 76 24 -19 -22 -57 -63 -85 -92 l-49 -52 -83 82 c-46 46 -83 86 -83
90 0 4 37 -14 82 -41 l82 -48 60 37z m-579 -236 c16 8 54 29 83 46 28 17 52
28 52 24 0 -4 -36 -44 -81 -89 l-81 -83 -76 80 c-42 44 -79 84 -80 89 -2 6 31
-11 74 -36 76 -45 79 -46 109 -31z m269 18 c56 -33 61 -35 85 -21 14 8 53 30
86 49 l60 34 -61 -70 c-34 -38 -73 -79 -86 -92 l-25 -22 -84 91 c-85 93 -83
96 25 31z"/>
<path d="M2050 2709 c-35 -15 -59 -39 -81 -81 -74 -146 86 -303 231 -226 64
35 92 86 87 161 -4 61 -22 95 -70 131 -31 23 -128 32 -167 15z m159 -155 c60
-50 26 -144 -52 -144 -75 0 -110 97 -53 146 35 31 67 30 105 -2z"/>
<path d="M2797 2700 c-94 -52 -114 -179 -41 -260 112 -123 306 -39 292 127 -8
91 -63 145 -155 150 -44 2 -67 -2 -96 -17z m111 -156 c29 -33 28 -74 -3 -108
-52 -56 -145 -15 -145 64 0 12 14 35 30 52 26 25 36 29 63 24 18 -3 42 -17 55
-32z"/>
</g>
</svg>
